<svg id="svg" version="1.1" width="400" height="400" viewBox="0 0 400 400" xmlns="http://www.w3.org/2000/svg" xmlns:xlink="http://www.w3.org/1999/xlink" ><g id="svgg"><path id="path0" d="M150.308 91.700 L 150.200 100.200 125.300 100.303 L 100.400 100.406 100.400 124.995 L 100.400 149.583 108.300 149.692 L 116.200 149.800 116.301 216.139 L 116.402 282.478 119.926 286.139 C 121.865 288.152,124.609 291.042,126.025 292.561 C 127.441 294.080,129.545 296.285,130.700 297.461 L 132.800 299.600 191.594 299.600 L 250.389 299.600 255.694 294.254 C 258.612 291.313,262.260 287.498,263.800 285.774 L 266.600 282.640 266.800 216.220 L 267.000 149.800 275.300 149.692 L 283.600 149.584 283.600 124.995 L 283.600 100.406 258.700 100.303 L 233.800 100.200 233.691 92.018 C 233.613 86.086,233.448 83.751,233.091 83.524 C 232.821 83.353,214.109 83.209,191.508 83.206 L 150.416 83.200 150.308 91.700 M266.400 125.000 L 266.400 133.200 191.600 133.200 L 116.800 133.200 116.800 125.000 L 116.800 116.800 191.600 116.800 L 266.400 116.800 266.400 125.000 M250.301 216.501 L 250.402 283.203 192.101 283.101 L 133.800 283.000 133.697 216.800 C 133.641 180.390,133.680 150.374,133.785 150.099 C 133.937 149.699,145.809 149.618,192.088 149.699 L 250.200 149.800 250.301 216.501 M150.400 216.600 L 150.400 266.800 158.600 266.800 L 166.800 266.800 166.800 216.600 L 166.800 166.400 158.600 166.400 L 150.400 166.400 150.400 216.600 M183.398 167.300 C 183.278 167.795,183.230 190.340,183.290 217.400 L 183.400 266.600 191.500 266.708 L 199.600 266.817 199.600 216.608 L 199.600 166.400 191.608 166.400 C 183.650 166.400,183.614 166.404,183.398 167.300 M216.847 166.943 C 216.517 167.340,216.424 180.752,216.498 217.043 L 216.600 266.600 225.000 266.600 L 233.400 266.600 233.510 217.400 C 233.570 190.340,233.522 167.795,233.402 167.300 C 233.133 166.185,217.752 165.853,216.847 166.943 " stroke="none" fill="#000000" fill-rule="evenodd"></path><path id="path1" d="M150.091 91.497 L 150.000 99.994 125.100 100.097 L 100.200 100.200 100.200 125.000 L 100.200 149.800 108.100 149.908 L 116.000 150.017 116.000 216.274 L 116.000 282.532 118.486 285.166 C 126.190 293.328,129.600 296.786,129.600 296.435 C 129.600 296.217,129.375 295.896,129.100 295.720 C 128.825 295.544,127.441 294.140,126.025 292.600 C 124.609 291.060,121.865 288.152,119.926 286.139 L 116.402 282.478 116.301 216.139 L 116.200 149.800 108.300 149.692 L 100.400 149.583 100.400 124.992 L 100.400 100.400 125.213 100.400 C 144.973 100.400,150.065 100.296,150.221 99.889 C 150.329 99.608,150.364 95.693,150.300 91.189 L 150.182 83.000 150.091 91.497 M233.091 83.488 C 233.446 83.740,233.613 86.111,233.691 92.018 L 233.800 100.200 258.700 100.303 L 283.600 100.406 283.600 125.003 L 283.600 149.600 275.424 149.600 C 270.927 149.600,267.163 149.735,267.061 149.900 C 266.959 150.065,270.683 150.110,275.337 150.000 L 283.800 149.800 283.800 125.000 L 283.800 100.200 258.908 100.097 L 234.016 99.994 233.908 91.730 C 233.817 84.786,233.704 83.440,233.200 83.303 C 232.765 83.184,232.735 83.235,233.091 83.488 M265.800 125.000 C 265.800 129.510,265.935 133.200,266.100 133.200 C 266.265 133.200,266.400 129.510,266.400 125.000 C 266.400 120.490,266.265 116.800,266.100 116.800 C 265.935 116.800,265.800 120.490,265.800 125.000 M133.868 149.865 C 133.497 150.237,133.529 282.709,133.900 282.938 C 134.065 283.040,134.154 253.171,134.098 216.562 L 133.995 150.000 192.000 150.000 L 250.005 150.000 249.902 216.600 C 249.846 253.230,249.936 283.200,250.101 283.200 C 250.267 283.200,250.357 253.185,250.301 216.500 L 250.200 149.800 192.168 149.699 C 160.250 149.643,134.015 149.718,133.868 149.865 M150.185 166.500 C 150.080 166.775,150.041 189.500,150.099 217.000 L 150.203 267.000 150.302 216.708 L 150.400 166.416 158.700 166.300 L 167.000 166.183 158.687 166.091 C 152.337 166.022,150.330 166.118,150.185 166.500 M183.389 166.418 C 183.241 166.658,183.228 166.961,183.360 167.093 C 183.492 167.225,183.600 167.123,183.600 166.867 C 183.600 166.527,185.771 166.400,191.598 166.400 L 199.597 166.400 199.701 216.500 L 199.805 266.600 199.802 216.400 L 199.800 166.200 191.729 166.092 C 186.239 166.018,183.571 166.123,183.389 166.418 M216.629 166.629 C 215.950 167.307,215.626 266.121,216.300 266.538 C 216.465 266.640,216.554 244.396,216.497 217.107 C 216.422 181.121,216.516 167.342,216.839 166.953 C 217.177 166.546,219.173 166.388,225.142 166.299 L 233.000 166.182 225.129 166.091 C 218.424 166.013,217.164 166.093,216.629 166.629 M233.400 216.600 C 233.400 244.168,233.535 266.640,233.700 266.538 C 234.092 266.296,234.092 166.904,233.700 166.662 C 233.535 166.560,233.400 189.032,233.400 216.600 M264.971 284.508 C 261.944 287.750,260.603 289.318,261.099 289.037 C 261.374 288.881,262.544 287.748,263.699 286.519 C 264.855 285.289,266.046 284.031,266.348 283.723 C 266.649 283.414,266.818 283.084,266.723 282.989 C 266.628 282.894,265.839 283.578,264.971 284.508 M256.300 293.585 C 255.282 294.577,255.440 294.980,256.471 294.020 C 256.950 293.574,257.265 293.140,257.171 293.056 C 257.077 292.972,256.685 293.210,256.300 293.585 M254.300 295.585 C 253.282 296.577,253.440 296.980,254.471 296.020 C 254.950 295.574,255.265 295.140,255.171 295.056 C 255.077 294.972,254.685 295.210,254.300 295.585 M130.000 297.115 C 130.000 297.284,130.360 297.730,130.800 298.107 C 131.240 298.484,131.600 298.654,131.600 298.485 C 131.600 298.316,131.240 297.870,130.800 297.493 C 130.360 297.116,130.000 296.946,130.000 297.115 M252.300 297.585 C 251.282 298.577,251.440 298.980,252.471 298.020 C 252.950 297.574,253.265 297.140,253.171 297.056 C 253.077 296.972,252.685 297.210,252.300 297.585 M132.163 299.290 C 132.247 299.701,143.834 299.800,191.600 299.800 C 239.366 299.800,250.953 299.701,251.037 299.290 C 251.094 299.010,251.049 298.964,250.937 299.190 C 250.799 299.467,231.585 299.600,191.600 299.600 C 151.615 299.600,132.401 299.467,132.263 299.190 C 132.151 298.964,132.107 299.010,132.163 299.290 " stroke="none" fill="#4d4d4d" fill-rule="evenodd"></path><path id="path2" d="M165.200 83.095 C 204.632 83.369,233.906 83.372,233.738 83.100 C 233.636 82.935,214.798 82.843,191.876 82.895 C 168.954 82.947,156.950 83.037,165.200 83.095 M154.332 117.100 C 174.864 117.157,208.344 117.157,228.732 117.100 C 249.119 117.043,232.320 116.996,191.400 116.996 C 150.480 116.996,133.799 117.043,154.332 117.100 M116.986 125.200 L 117.000 133.000 191.300 133.002 L 265.600 133.003 191.409 132.901 L 117.217 132.798 117.095 125.099 L 116.973 117.400 116.986 125.200 M266.985 150.500 C 266.880 150.775,266.841 180.790,266.897 217.200 L 267.000 283.400 267.200 216.700 C 267.310 180.015,267.349 150.000,267.287 150.000 C 267.226 150.000,267.089 150.225,266.985 150.500 M182.985 166.500 C 182.880 166.775,182.841 189.500,182.897 217.000 L 183.000 267.000 191.500 267.012 L 200.001 267.024 191.597 266.904 L 183.194 266.784 183.297 216.392 C 183.354 188.676,183.349 166.000,183.287 166.000 C 183.226 166.000,183.089 166.225,182.985 166.500 M166.898 216.492 L 166.800 266.784 158.500 266.900 L 150.200 267.017 158.513 267.109 C 164.863 267.178,166.870 267.082,167.015 266.700 C 167.120 266.425,167.159 243.700,167.101 216.200 L 166.997 166.200 166.898 216.492 M216.262 266.900 C 216.364 267.065,220.296 267.200,225.000 267.200 C 229.704 267.200,233.636 267.065,233.738 266.900 C 233.840 266.735,229.908 266.600,225.000 266.600 C 220.092 266.600,216.160 266.735,216.262 266.900 M117.617 284.673 C 118.598 285.704,119.580 286.762,119.800 287.025 C 120.716 288.119,126.918 294.400,127.083 294.400 C 127.181 294.400,124.782 291.790,121.752 288.600 C 118.722 285.410,116.151 282.800,116.038 282.800 C 115.926 282.800,116.636 283.643,117.617 284.673 M163.100 283.100 C 178.995 283.158,205.005 283.158,220.900 283.100 C 236.795 283.042,223.790 282.995,192.000 282.995 C 160.210 282.995,147.205 283.042,163.100 283.100 M263.785 286.500 L 261.800 288.600 263.900 286.615 C 265.851 284.771,266.183 284.400,265.885 284.400 C 265.822 284.400,264.877 285.345,263.785 286.500 " stroke="none" fill="#7c7c7c" fill-rule="evenodd"></path><path id="path3" d="M149.600 91.197 L 149.600 99.594 124.700 99.697 L 99.800 99.800 99.800 125.000 L 99.800 150.200 107.700 150.308 L 115.600 150.417 115.600 216.813 L 115.600 283.208 118.500 286.283 C 123.331 291.406,131.200 299.275,131.200 298.983 C 131.200 298.833,128.789 296.255,125.843 293.255 C 122.896 290.255,119.521 286.740,118.343 285.445 L 116.200 283.090 116.000 216.645 L 115.800 150.200 107.900 150.092 L 100.000 149.983 100.000 124.995 L 100.000 100.006 124.900 99.903 L 149.800 99.800 150.000 91.299 C 150.110 86.624,150.065 82.799,149.900 82.799 C 149.735 82.800,149.600 86.579,149.600 91.197 M234.000 91.299 L 234.200 99.800 259.100 99.903 L 284.000 100.006 284.000 124.995 L 284.000 149.984 275.733 150.092 C 268.787 150.183,267.440 150.296,267.303 150.800 C 267.184 151.235,267.235 151.265,267.488 150.909 C 267.740 150.554,270.111 150.387,276.018 150.309 L 284.200 150.200 284.200 125.000 L 284.200 99.800 259.300 99.697 L 234.400 99.594 234.400 91.197 C 234.400 86.579,234.265 82.800,234.100 82.799 C 233.935 82.799,233.890 86.624,234.000 91.299 M265.768 125.000 C 265.768 129.400,265.826 131.255,265.898 129.121 C 265.970 126.988,265.970 123.388,265.899 121.121 C 265.827 118.855,265.768 120.600,265.768 125.000 M117.348 124.000 C 117.348 126.310,117.414 127.255,117.495 126.100 C 117.576 124.945,117.576 123.055,117.495 121.900 C 117.414 120.745,117.348 121.690,117.348 124.000 M134.185 150.499 C 134.080 150.774,134.041 180.700,134.098 217.000 L 134.202 283.000 134.301 216.700 L 134.400 150.400 191.999 150.400 L 249.598 150.400 249.701 216.600 L 249.804 282.800 249.802 216.500 L 249.800 150.200 192.088 150.099 C 146.129 150.018,134.337 150.099,134.185 150.499 M267.395 216.200 C 267.395 251.840,267.442 266.361,267.500 248.468 C 267.558 230.576,267.558 201.416,267.500 183.668 C 267.442 165.921,267.395 180.560,267.395 216.200 M149.867 165.867 C 149.720 166.013,149.600 188.747,149.600 216.387 C 149.600 267.458,149.605 267.628,150.980 267.588 C 151.211 267.581,151.085 267.392,150.700 267.168 C 150.039 266.783,150.000 263.938,150.000 216.365 L 150.000 165.970 158.600 166.085 C 163.331 166.148,167.201 166.065,167.200 165.900 C 167.200 165.529,150.237 165.497,149.867 165.867 M183.066 165.892 C 182.961 166.061,186.728 166.148,191.436 166.085 L 199.997 165.970 200.101 216.485 L 200.205 267.000 200.202 216.400 L 200.200 165.800 191.728 165.692 C 187.069 165.633,183.171 165.723,183.066 165.892 M216.080 166.080 C 215.535 166.625,215.356 266.602,215.900 266.938 C 216.065 267.040,216.200 244.416,216.200 216.662 L 216.200 166.200 225.000 166.200 L 233.800 166.200 233.800 216.700 C 233.800 244.475,233.935 267.200,234.100 267.200 C 234.781 267.200,234.449 166.104,233.767 165.843 C 232.508 165.359,216.587 165.573,216.080 166.080 M167.394 216.000 C 167.394 242.510,167.441 253.355,167.500 240.100 C 167.558 226.845,167.558 205.155,167.500 191.900 C 167.441 178.645,167.394 189.490,167.394 216.000 M154.316 267.497 C 155.699 267.575,157.859 267.574,159.116 267.495 C 160.372 267.416,159.240 267.352,156.600 267.353 C 153.960 267.353,152.932 267.418,154.316 267.497 M162.705 267.483 C 163.202 267.579,163.922 267.575,164.305 267.475 C 164.687 267.375,164.280 267.296,163.400 267.301 C 162.520 267.305,162.207 267.387,162.705 267.483 M187.500 267.498 C 189.755 267.570,193.445 267.570,195.700 267.498 C 197.955 267.427,196.110 267.369,191.600 267.369 C 187.090 267.369,185.245 267.427,187.500 267.498 M221.100 267.498 C 223.355 267.570,227.045 267.570,229.300 267.498 C 231.555 267.427,229.710 267.369,225.200 267.369 C 220.690 267.369,218.845 267.427,221.100 267.498 M266.439 283.940 C 266.130 284.303,264.785 285.725,263.450 287.100 C 262.115 288.475,261.125 289.600,261.250 289.600 C 261.748 289.600,267.435 283.698,267.177 283.450 C 267.079 283.357,266.747 283.578,266.439 283.940 M259.800 290.800 C 259.402 291.240,259.166 291.600,259.277 291.600 C 259.387 291.600,259.893 291.240,260.400 290.800 C 260.907 290.360,261.143 290.000,260.923 290.000 C 260.704 290.000,260.198 290.360,259.800 290.800 M257.800 292.800 C 257.402 293.240,257.166 293.600,257.277 293.600 C 257.387 293.600,257.893 293.240,258.400 292.800 C 258.907 292.360,259.143 292.000,258.923 292.000 C 258.704 292.000,258.198 292.360,257.800 292.800 M255.800 294.800 C 255.402 295.240,255.166 295.600,255.277 295.600 C 255.387 295.600,255.893 295.240,256.400 294.800 C 256.907 294.360,257.143 294.000,256.923 294.000 C 256.704 294.000,256.198 294.360,255.800 294.800 M131.703 299.600 C 131.848 300.130,138.848 300.200,191.633 300.202 L 251.400 300.204 191.823 300.101 C 144.796 300.019,132.171 299.892,131.892 299.499 C 131.632 299.131,131.582 299.157,131.703 299.600 " stroke="none" fill="#bababa" fill-rule="evenodd"></path><path id="path4" d="M0.000 200.000 L 0.000 400.000 200.000 400.000 L 400.000 400.000 400.000 200.000 L 400.000 0.000 200.000 0.000 L 0.000 0.000 0.000 200.000 M234.400 91.197 L 234.400 99.594 259.300 99.697 L 284.200 99.800 284.200 125.000 L 284.200 150.200 275.900 150.308 C 271.335 150.368,267.600 150.548,267.600 150.708 C 267.600 150.869,267.597 180.562,267.593 216.692 C 267.589 253.769,267.432 282.780,267.232 283.292 C 267.038 283.792,263.264 287.845,258.845 292.300 L 250.811 300.400 191.572 300.400 L 132.333 300.400 126.867 294.878 C 123.860 291.841,120.095 287.973,118.500 286.282 L 115.600 283.208 115.600 216.813 L 115.600 150.417 107.700 150.308 L 99.800 150.200 99.800 125.000 L 99.800 99.800 124.700 99.697 L 149.600 99.594 149.600 91.197 L 149.600 82.800 192.000 82.800 L 234.400 82.800 234.400 91.197 M117.586 117.304 C 117.579 117.357,117.534 120.820,117.486 125.000 L 117.400 132.600 191.500 132.701 L 265.600 132.802 265.600 125.005 L 265.600 117.208 191.600 117.209 C 150.900 117.209,117.594 117.252,117.586 117.304 M134.400 216.600 L 134.400 282.800 192.000 282.800 L 249.600 282.800 249.600 216.600 L 249.600 150.400 192.000 150.400 L 134.400 150.400 134.400 216.600 M167.350 167.489 C 167.752 170.424,167.631 265.467,167.223 266.539 L 166.865 267.480 158.744 267.516 C 153.554 267.538,150.438 267.398,150.111 267.127 C 149.559 266.668,149.317 166.416,149.867 165.867 C 150.013 165.720,153.949 165.600,158.612 165.600 L 167.091 165.600 167.350 167.489 M200.302 216.375 C 200.382 256.572,200.300 267.016,199.902 267.269 C 199.319 267.639,184.375 267.719,183.433 267.357 C 182.767 267.102,182.412 166.521,183.074 165.859 C 183.225 165.708,187.140 165.633,191.774 165.692 L 200.200 165.800 200.302 216.375 M233.767 165.843 C 234.340 166.062,234.400 170.906,234.400 216.596 L 234.400 267.107 233.500 267.348 C 232.012 267.747,217.731 267.630,216.626 267.210 L 215.600 266.820 215.600 216.690 C 215.600 178.233,215.712 166.448,216.080 166.080 C 216.587 165.573,232.508 165.359,233.767 165.843 " stroke="none" fill="#f7f7f7" fill-rule="evenodd"></path></g></svg>