<?xml version="1.0" encoding="utf-8"?>
<!-- Generator: Adobe Illustrator 15.0.0, SVG Export Plug-In . SVG Version: 6.00 Build 0)  -->
<!DOCTYPE svg PUBLIC "-//W3C//DTD SVG 1.1//EN" "http://www.w3.org/Graphics/SVG/1.1/DTD/svg11.dtd">
<svg version="1.1" id="Layer_1" xmlns="http://www.w3.org/2000/svg" xmlns:xlink="http://www.w3.org/1999/xlink" x="0px" y="0px"
	 width="750.899px" height="47.414px" viewBox="41.646 273.739 750.899 47.414"
	 enable-background="new 41.646 273.739 750.899 47.414" xml:space="preserve">
<title>logo</title>
<path fill="#FC5C5D" d="M413.461,302.635c-0.006,6.334-5.146,11.464-11.479,11.458c-6.325-0.007-11.451-5.133-11.457-11.458v-28.793
	h-5.481v28.793c-0.008,9.361,7.574,16.956,16.936,16.964s16.956-7.575,16.964-16.937c0-0.009,0-0.019,0-0.027v-28.793h-5.481
	V302.635z"/>
<path fill="#FC5C5D" d="M461.374,300.053c5.253-2.011,8.741-7.031,8.793-12.656c-0.139-7.664-6.451-13.772-14.116-13.657h-7.567l0,0
	h-5.481v45.836h5.481v-18.521h6.81l13.873,18.803h6.819L461.374,300.053z M448.493,279.221h7.567
	c4.516-0.216,8.351,3.27,8.566,7.784c0.217,4.516-3.269,8.352-7.784,8.567c-0.261,0.013-0.521,0.013-0.782,0h-7.567V279.221z"/>
<path fill="#FC5C5D" d="M341.274,319.726c-12.385,0-22.45-10.29-22.45-22.938c0-12.646,10.075-22.937,22.45-22.937
	c12.376,0,22.451,10.29,22.451,22.937C363.725,309.436,353.659,319.726,341.274,319.726z M341.274,279.287
	c-9.12,0-16.538,7.849-16.538,17.502s7.418,17.502,16.538,17.502c9.121,0,16.539-7.849,16.539-17.502
	S350.395,279.287,341.274,279.287z"/>
<polygon fill="#FC5C5D" points="288.563,283.983 281.276,273.843 267.768,273.843 284.858,297.622 284.858,319.726 295.83,319.726 
	295.83,304.525 295.83,294.086 "/>
<rect x="41.646" y="274.077" width="10.973" height="45.584"/>
<rect x="70.728" y="274.077" width="10.973" height="45.584"/>
<g id="_Groep_">
	<path d="M194.785,305.778v8.476c-3.911,3.422-8.929,5.312-14.125,5.322c-12.161,0-22.002-10.196-22.002-22.73
		c0-12.535,9.869-22.722,22.002-22.722c5.196,0.01,10.214,1.9,14.125,5.322v8.466c-2.889-5.092-8.271-8.258-14.125-8.307
		c-9.111,0-16.52,7.735-16.52,17.24c0,9.504,7.408,17.249,16.52,17.249C186.516,314.046,191.901,310.875,194.785,305.778z"/>
</g>
<path d="M124.553,280.335l-2.946-6.258l-0.075-0.159l-0.075,0.159l-2.956,6.258l-18.614,39.288h6.07l3.985-8.419h23.171l3.984,8.419
	h6.071L124.553,280.335z M112.532,305.741l8.989-19.008l8.99,19.008H112.532z"/>
<polygon points="227.301,296.677 227.301,296.677 249.386,274.077 241.716,274.077 224.288,291.906 224.288,274.077 
	218.807,274.077 218.807,319.651 224.288,319.651 224.288,301.447 242.09,319.651 249.761,319.651 "/>
<rect x="495.723" y="274.9" width="37.306" height="10.963"/>
<rect x="495.723" y="295.788" width="19.645" height="10.973"/>
<path d="M581.839,304.188c0,6.334-5.135,11.469-11.469,11.469s-11.468-5.135-11.468-11.469v-29.13h-5.482v29.13
	c-0.007,9.361,7.575,16.956,16.937,16.964s16.956-7.575,16.964-16.937c0-0.009,0-0.019,0-0.027v-29.13h-5.481V304.188z"/>
<path d="M688.61,303.851c0,6.334-5.135,11.469-11.469,11.469s-11.469-5.135-11.469-11.469v-28.793h-5.481v28.793
	c-0.008,9.361,7.575,16.957,16.937,16.964c9.361,0.008,16.956-7.574,16.964-16.937c0-0.009,0-0.018,0-0.027v-28.793h-5.481V303.851z
	"/>
<polygon points="792.545,280.541 792.545,275.058 773.687,275.058 770.947,275.058 768.205,275.058 768.205,321.073 
	770.947,321.073 773.687,321.073 792.545,321.073 792.545,315.592 773.687,315.592 773.687,301.026 792.545,301.026 
	792.545,295.536 773.687,295.536 773.687,280.541 "/>
<polygon points="607.769,280.541 621.062,280.541 621.062,321.073 626.543,321.073 626.543,280.541 639.845,280.541 
	639.845,275.058 607.769,275.058 "/>
<path d="M736.569,301.26c5.254-2.011,8.742-7.031,8.794-12.656c-0.139-7.665-6.451-13.772-14.116-13.657h-7.567l0,0h-5.481v45.836
	h5.481V302.27h6.81l13.873,18.756h6.791L736.569,301.26z M723.688,280.428h7.568c4.515-0.217,8.351,3.269,8.566,7.784
	s-3.269,8.351-7.784,8.567c-0.261,0.012-0.521,0.012-0.782,0h-7.568V280.428z"/>
</svg>
